<svg width="124" height="52" viewBox="0 0 124 52" fill="none" xmlns="http://www.w3.org/2000/svg">
<path d="M49.6009 43.3173C64.8486 43.3173 77.2093 35.0155 77.2093 24.7746C77.2093 14.5338 64.8486 6.23193 49.6009 6.23193C34.3532 6.23193 21.9926 14.5338 21.9926 24.7746C21.9926 35.0155 34.3532 43.3173 49.6009 43.3173Z" fill="#FDBA5D"/>
<path d="M14.9923 44.3164C14.7214 44.3164 14.5859 44.1815 14.5859 43.9118V14.6998C14.5859 14.43 14.7214 14.2929 14.9923 14.2929C15.2632 14.2929 15.401 14.4277 15.401 14.6998V18.0672C15.401 18.0947 15.4148 18.1084 15.4423 18.1084C15.4974 18.1084 15.5227 18.081 15.5227 18.0284C16.2023 16.7573 17.2056 15.7491 18.5372 15.0061C19.8688 14.2631 21.4025 13.8905 23.1428 13.8905C25.8864 13.8905 27.9987 14.837 29.4772 16.7299C30.9581 18.6228 31.6974 21.3295 31.6974 24.8456C31.6974 28.3616 30.9512 31.0318 29.4566 32.9384C27.9619 34.845 25.8566 35.7984 23.1405 35.7984C21.4025 35.7984 19.8665 35.4257 18.5349 34.6827C17.2033 33.9397 16.1977 32.9316 15.5204 31.6605C15.5204 31.6079 15.4928 31.5805 15.44 31.5805C15.4125 31.5805 15.3987 31.5942 15.3987 31.6216V43.9141C15.3987 44.1838 15.2632 44.3187 14.99 44.3187L14.9923 44.3164ZM15.3987 21.3935V28.2908C15.3987 30.1562 16.1311 31.7405 17.5982 33.0367C19.0653 34.3352 20.9112 34.9845 23.1405 34.9845C25.6385 34.9845 27.5533 34.1112 28.8849 32.3669C30.2165 30.6226 30.88 28.1147 30.88 24.841C30.88 21.5673 30.2211 18.9931 28.9033 17.274C27.5854 15.5571 25.6637 14.6975 23.1382 14.6975C20.9112 14.6975 19.063 15.3468 17.5959 16.6453C16.1288 17.9438 15.3964 19.5258 15.3964 21.3913L15.3987 21.3935Z" fill="#231F20"/>
<path d="M48.2096 24.7312L34.34 24.8432C34.0943 24.8432 33.9726 24.9506 33.9726 25.1678C34.053 31.713 36.9734 34.9867 42.7315 34.9867C44.8231 34.9867 46.8068 34.6072 48.6803 33.8505C48.7882 33.8231 48.8777 33.8368 48.9466 33.8916C49.0132 33.9465 49.0476 34.0265 49.0476 34.1363C49.0476 34.4609 48.9259 34.6643 48.6803 34.7444C46.832 35.4485 44.8507 35.7983 42.7315 35.7983C36.3489 35.7983 33.1576 32.1473 33.1576 24.8455C33.1576 23.1149 33.3413 21.5786 33.7086 20.2412C34.0759 18.9016 34.5512 17.8408 35.1344 17.0567C35.7175 16.2725 36.4178 15.637 37.2328 15.1501C38.0479 14.6631 38.8423 14.3316 39.616 14.1556C40.3897 13.9796 41.2254 13.8927 42.1208 13.8927C46.04 13.8927 48.5425 15.7307 49.6308 19.4068M49.1532 21.0391C48.3933 16.8121 46.0491 14.6997 42.1208 14.6997C37.0423 14.6997 34.3377 17.6877 34.0117 23.6658C34.0117 23.9082 34.1333 24.0316 34.379 24.0316H48.2096" fill="#231F20"/>
<path d="M50.0027 17.0522C50.5859 16.268 51.2861 15.6325 52.1012 15.1455C52.9162 14.6586 53.7106 14.3271 54.4843 14.1511C55.258 13.9751 56.0938 13.8882 56.9892 13.8882C61.9047 13.8882 64.5955 16.7824 65.057 22.5709C65.1121 23.1927 64.9147 23.7276 64.4669 24.1734C64.0192 24.6192 63.4682 24.8433 62.8162 24.8433H49.2083C48.9626 24.8433 48.841 24.9507 48.841 25.1679C48.9213 31.713 51.8417 34.9867 57.5999 34.9867C59.6914 34.9867 61.6751 34.6073 63.5486 33.8506C63.6565 33.8231 63.746 33.8368 63.8149 33.8917C63.8815 33.9466 63.9159 34.0266 63.9159 34.1363C63.9159 34.4609 63.7942 34.6644 63.5486 34.7444C61.7004 35.4485 59.719 35.7983 57.5999 35.7983C51.2172 35.7983 48.0259 32.1474 48.0259 24.8455C48.0259 23.1149 48.2096 21.5787 48.5769 20.2413C48.6848 19.8481 48.8019 19.48 48.9282 19.1348M56.9892 14.6998C51.9106 14.6998 49.206 17.6877 48.88 23.6659C48.88 23.9082 49.0017 24.0317 49.2473 24.0317H63.9159C64.1616 24.0317 64.2833 23.9105 64.2833 23.6659C64.0927 17.6877 61.6613 14.6998 56.9892 14.6998Z" fill="#231F20"/>
<path d="M67.3391 44.3164C67.0682 44.3164 66.9328 44.1815 66.9328 43.9118V14.6998C66.9328 14.43 67.0682 14.2929 67.3391 14.2929C67.6101 14.2929 67.7478 14.4277 67.7478 14.6998V18.0672C67.7478 18.0947 67.7616 18.1084 67.7891 18.1084C67.8442 18.1084 67.8695 18.081 67.8695 18.0284C68.5491 16.7573 69.5524 15.7491 70.884 15.0061C72.2157 14.2631 73.7493 13.8905 75.4896 13.8905C78.2333 13.8905 80.3455 14.837 81.8241 16.7299C83.3049 18.6228 84.0442 21.3295 84.0442 24.8456C84.0442 28.3616 83.298 31.0318 81.8034 32.9384C80.3088 34.845 78.2034 35.7984 75.4873 35.7984C73.7493 35.7984 72.2134 35.4257 70.8817 34.6827C69.5501 33.9397 68.5445 32.9316 67.8672 31.6605C67.8672 31.6079 67.8397 31.5805 67.7868 31.5805C67.7593 31.5805 67.7455 31.5942 67.7455 31.6216V43.9141C67.7455 44.1838 67.6101 44.3187 67.3369 44.3187L67.3391 44.3164ZM67.7478 21.3935V28.2908C67.7478 30.1562 68.4802 31.7405 69.9473 33.0367C71.4144 34.3352 73.2603 34.9845 75.4896 34.9845C77.9876 34.9845 79.9024 34.1112 81.234 32.3669C82.5656 30.6226 83.2292 28.1147 83.2292 24.841C83.2292 21.5673 82.5702 18.9931 81.2524 17.274C79.9345 15.5571 78.0129 14.6975 75.4873 14.6975C73.2603 14.6975 71.4121 15.3468 69.945 16.6453C68.4779 17.9438 67.7455 19.5258 67.7455 21.3913L67.7478 21.3935Z" fill="#231F20"/>
<path d="M92.2337 34.9868C94.2702 34.9868 95.8659 34.5547 97.0207 33.6883C98.1756 32.8241 98.7518 31.6331 98.7518 30.1174C98.7518 28.9011 98.3087 27.845 97.4271 26.9534C96.5432 26.0618 94.7845 25.3577 92.1511 24.8433C89.7059 24.3563 87.9542 23.6728 86.8957 22.7949C85.8373 21.9171 85.307 20.7054 85.307 19.1646C85.307 17.6237 85.9383 16.2909 87.2011 15.3308C88.4638 14.3706 90.1399 13.8905 92.2337 13.8905C94.3276 13.8905 96.4972 14.2426 98.5085 14.9444C98.8069 15.0519 98.9562 15.2553 98.9562 15.5525C98.9562 15.66 98.908 15.7423 98.8138 15.7971C98.7174 15.852 98.6164 15.8657 98.5085 15.8383C96.3342 15.0816 94.2427 14.7021 92.2337 14.7021C90.3327 14.7021 88.8381 15.1021 87.7521 15.8977C86.6661 16.6956 86.122 17.7838 86.122 19.1646C86.122 20.3808 86.5559 21.3752 87.4261 22.1457C88.2962 22.9161 89.924 23.5448 92.3164 24.0317C94.8143 24.5187 96.6488 25.2548 97.8174 26.2424C98.986 27.23 99.5692 28.5216 99.5692 30.1174C99.5692 31.8754 98.9103 33.2608 97.5924 34.2758C96.2745 35.2908 94.4883 35.7961 92.2337 35.7961C89.9791 35.7961 87.8462 35.3228 85.7547 34.3764C85.4562 34.2415 85.307 34.0243 85.307 33.7271C85.307 33.6197 85.3483 33.5397 85.4286 33.4848C85.5113 33.4299 85.6054 33.4162 85.7133 33.4437C87.86 34.4724 90.032 34.9868 92.2337 34.9868Z" fill="#231F20"/>
<path d="M107.961 34.9868C109.997 34.9868 111.593 34.5547 112.748 33.6883C113.903 32.8241 114.479 31.6331 114.479 30.1174C114.479 28.9011 114.036 27.845 113.154 26.9534C112.27 26.0618 110.511 25.3577 107.878 24.8433C105.433 24.3563 103.681 23.6728 102.623 22.7949C101.564 21.9171 101.034 20.7054 101.034 19.1646C101.034 17.6237 101.665 16.2909 102.928 15.3308C104.191 14.3706 105.867 13.8905 107.961 13.8905C110.055 13.8905 112.224 14.2426 114.235 14.9444C114.534 15.0519 114.683 15.2553 114.683 15.5525C114.683 15.66 114.635 15.7423 114.541 15.7971C114.444 15.852 114.343 15.8657 114.235 15.8383C112.061 15.0816 109.97 14.7021 107.961 14.7021C106.06 14.7021 104.565 15.1021 103.479 15.8977C102.393 16.6956 101.849 17.7838 101.849 19.1646C101.849 20.3808 102.283 21.3752 103.153 22.1457C104.023 22.9161 105.651 23.5448 108.043 24.0317C110.541 24.5187 112.376 25.2548 113.544 26.2424C114.713 27.23 115.296 28.5216 115.296 30.1174C115.296 31.8754 114.637 33.2608 113.319 34.2758C112.002 35.2908 110.215 35.7961 107.961 35.7961C105.706 35.7961 103.573 35.3228 101.482 34.3764C101.183 34.2415 101.034 34.0243 101.034 33.7271C101.034 33.6197 101.075 33.5397 101.156 33.4848C101.238 33.4299 101.332 33.4162 101.44 33.4437C103.587 34.4724 105.759 34.9868 107.961 34.9868Z" fill="#231F20"/>
<path d="M57.0833 18.2843C54.2134 18.2843 52.6866 19.9738 52.503 23.3504C52.503 23.4875 52.5718 23.5561 52.7096 23.5561H60.9978C61.1356 23.5561 61.2045 23.4875 61.2045 23.3504C61.0966 19.9738 59.7236 18.2843 57.0833 18.2843ZM42.0795 18.2615C39.2096 18.2615 37.6828 19.9509 37.4992 23.3275C37.4992 23.4647 37.568 23.5333 37.7058 23.5333H45.994C46.1318 23.5333 46.2007 23.4647 46.2007 23.3275C46.0928 19.9509 44.7198 18.2615 42.0795 18.2615Z" fill="#231F20"/>
</svg>
